<?xml version="1.0" standalone="no"?>
<!DOCTYPE svg PUBLIC "-//W3C//DTD SVG 20010904//EN"
 "http://www.w3.org/TR/2001/REC-SVG-20010904/DTD/svg10.dtd">
<svg version="1.0" xmlns="http://www.w3.org/2000/svg"
 width="820.000000pt" height="735.000000pt" viewBox="0 0 820.000000 735.000000"
 preserveAspectRatio="xMidYMid meet">
<metadata>
Created by potrace 1.16, written by Peter Selinger 2001-2019
</metadata>
<g transform="translate(0.000000,735.000000) scale(0.100000,-0.100000)"
fill="#000000" stroke="none">
<path d="M0 3675 l0 -3675 4100 0 4100 0 0 3675 0 3675 -4100 0 -4100 0 0
-3675z m5820 2570 c117 -60 255 -191 366 -345 91 -128 180 -278 199 -340 10
-30 21 -59 25 -65 29 -39 62 -230 64 -360 1 -197 -39 -346 -122 -442 -26 -30
-34 -32 -138 -46 -61 -8 -129 -23 -150 -33 -35 -17 -39 -23 -42 -59 -2 -39 -1
-41 73 -90 41 -27 75 -52 75 -55 0 -3 -16 -28 -35 -55 -19 -28 -45 -66 -59
-86 -30 -44 -53 -59 -136 -89 -36 -13 -69 -26 -75 -30 -5 -4 -37 -17 -70 -29
-33 -13 -64 -26 -70 -31 -5 -4 -25 -11 -44 -15 l-34 -7 51 94 c48 89 51 100
62 208 7 63 12 135 12 160 0 144 -44 609 -60 634 -5 9 -52 222 -71 326 -18 94
-34 419 -28 565 8 172 11 189 40 204 27 13 131 5 167 -14z m-3763 -347 c26
-21 61 -135 68 -223 4 -49 8 -99 9 -110 2 -11 -3 -72 -10 -135 -15 -130 -33
-603 -34 -880 0 -257 31 -420 112 -581 22 -44 38 -82 35 -85 -8 -8 -131 23
-212 54 -253 96 -258 98 -440 238 -150 115 -153 118 -187 191 -32 67 -82 290
-94 413 -8 81 34 303 78 409 l14 34 129 1 130 1 19 39 c18 38 18 40 1 72 -10
19 -44 64 -76 101 -32 38 -58 74 -59 81 0 18 98 142 179 225 137 142 274 205
338 155z m1712 -424 c-12 -30 -19 -57 -16 -60 3 -3 27 1 54 9 26 8 66 20 89
27 22 6 51 10 65 8 22 -4 21 -6 -16 -21 -61 -26 -129 -64 -133 -75 -2 -6 84
-12 220 -15 123 -2 237 -9 253 -15 17 -6 71 -21 120 -32 89 -21 158 -49 123
-50 -29 0 -66 -70 -37 -70 6 0 20 11 30 24 35 45 111 42 214 -10 28 -14 64
-36 80 -49 l30 -25 -83 29 c-79 28 -86 29 -134 16 -81 -21 -121 -72 -158 -199
-16 -56 -33 -141 -36 -189 l-7 -87 -41 35 c-23 19 -68 50 -102 69 -53 31 -74
37 -165 45 -169 15 -303 -4 -407 -61 -91 -49 -205 -149 -224 -197 l-10 -26
-13 35 c-49 130 -105 243 -152 306 -13 17 -51 48 -84 69 -60 37 -62 37 -132
31 l-72 -7 35 30 c30 26 43 30 90 30 30 1 72 -4 94 -8 78 -19 82 17 5 41 -22
6 -39 14 -39 17 0 12 215 118 275 136 33 10 77 27 98 37 41 20 50 43 15 35
-13 -3 -38 -8 -56 -12 l-32 -8 47 70 c40 58 49 67 53 50 3 -11 11 -22 17 -24
17 -6 143 138 151 172 l7 30 3 -28 c2 -16 -6 -53 -19 -83z m1921 -414 c6 -41
12 -84 14 -96 2 -11 12 -117 21 -235 23 -296 13 -422 -42 -529 -24 -47 -74
-117 -133 -184 -92 -104 -113 -136 -91 -136 11 0 81 52 135 102 26 24 84 55
175 92 75 31 144 61 154 67 37 21 29 -2 -21 -53 -27 -29 -62 -67 -76 -85 -17
-20 -68 -52 -144 -88 -64 -31 -124 -60 -133 -65 -8 -4 -42 -13 -75 -20 -32 -6
-67 -14 -76 -16 -16 -5 -17 1 -12 54 5 49 4 60 -10 65 -13 5 -16 -1 -16 -40 0
-68 -49 -159 -123 -230 -61 -59 -161 -133 -178 -133 -17 0 -194 -70 -269 -107
-41 -20 -96 -57 -122 -82 -40 -38 -50 -43 -69 -35 -25 12 -45 -2 176 124 161
92 177 102 259 164 84 64 111 106 123 193 6 45 7 45 75 56 21 3 28 0 30 -17 5
-35 33 -25 36 13 5 55 -35 106 -67 86 -15 -8 -2 -35 18 -36 9 -1 -1 -5 -22
-10 -29 -7 -63 -4 -135 12 -54 11 -173 32 -267 45 -159 24 -187 25 -435 20
-146 -3 -275 -8 -287 -12 -19 -5 -23 -2 -23 18 0 20 7 27 42 37 56 17 213 136
269 204 l46 55 12 -34 c13 -36 50 -65 161 -126 109 -60 207 -88 310 -88 120 0
160 14 219 75 76 78 118 170 136 298 4 26 11 47 16 47 5 0 9 -2 9 -5 0 -22 54
-334 61 -352 16 -42 25 -24 28 53 1 42 6 95 11 117 60 275 70 319 150 637 19
78 74 232 103 288 l11 24 8 -29 c5 -15 13 -62 18 -103z m-942 66 c87 -30 146
-69 235 -155 94 -91 175 -207 232 -331 47 -104 47 -106 42 -185 -13 -193 -96
-356 -204 -401 -52 -22 -211 -18 -291 7 -70 23 -194 86 -249 127 -52 38 -55
65 -50 392 4 266 6 302 26 369 12 40 28 85 35 100 28 52 89 96 142 100 6 1 43
-10 82 -23z m-1524 -190 c58 -37 74 -57 129 -158 71 -132 117 -268 117 -351 0
-33 8 -62 24 -90 52 -90 43 -186 -27 -273 -34 -43 -60 -62 -142 -102 -210
-105 -331 -126 -438 -77 -77 35 -109 76 -142 175 -33 103 -46 301 -25 391 20
88 86 244 131 311 49 73 155 186 184 199 11 4 46 8 78 8 49 1 66 -4 111 -33z
m-1069 -63 c19 -77 118 -308 265 -618 78 -163 107 -229 115 -255 4 -14 11 -29
15 -35 12 -16 61 -137 69 -169 3 -16 11 -31 17 -33 6 -2 8 51 6 154 -4 163 11
393 28 422 8 13 10 12 10 -9 5 -185 48 -350 108 -412 20 -21 40 -38 44 -38 4
0 32 -11 62 -25 80 -37 145 -34 275 12 245 87 348 167 377 296 l15 66 97 -66
c53 -36 104 -71 112 -78 22 -19 135 -64 210 -84 50 -13 66 -22 68 -37 3 -18
-6 -21 -99 -33 -56 -7 -109 -16 -118 -21 -9 -5 -72 -18 -141 -30 -69 -12 -138
-25 -155 -31 -16 -5 -75 -20 -130 -34 -55 -13 -149 -38 -210 -55 -60 -17 -139
-38 -175 -47 -36 -8 -72 -21 -80 -28 -21 -17 -115 -5 -115 14 0 30 -22 20 -44
-19 -15 -28 -21 -49 -17 -66 8 -30 30 -27 34 4 3 20 9 22 62 22 59 0 59 0 65
-32 4 -18 16 -45 28 -59 28 -34 152 -121 197 -139 69 -26 316 -132 390 -165
42 -19 81 -35 87 -35 19 0 34 -61 27 -111 -6 -42 -64 -153 -64 -122 0 14 -28
43 -41 43 -10 0 -4 -57 12 -122 13 -52 49 -316 49 -357 -1 -29 -2 -33 -11 -18
-8 14 -39 25 -39 13 0 -8 50 -134 68 -171 13 -26 24 -81 32 -160 6 -66 12
-129 13 -140 2 -11 5 -24 8 -30 14 -25 -17 -347 -42 -440 -11 -38 -31 -113
-44 -165 -14 -52 -30 -103 -35 -112 -27 -48 4 -98 62 -98 27 0 28 -2 28 -55 0
-53 -1 -55 -32 -63 -23 -5 -38 -17 -48 -40 -18 -37 -34 -39 -124 -16 -73 19
-155 14 -240 -16 -33 -11 -79 -20 -102 -20 -37 0 -44 3 -48 23 -21 100 -22
102 -44 105 -19 3 -23 9 -20 34 2 24 12 35 51 56 l48 27 20 -27 c20 -28 43
-36 53 -20 3 5 -8 23 -24 40 -38 42 -76 42 -141 0 -47 -31 -49 -35 -49 -78 0
-74 -9 -79 -82 -43 -35 17 -69 38 -76 45 -20 25 11 53 75 67 58 14 82 32 83
64 0 22 -13 22 -34 -2 -10 -11 -37 -21 -68 -24 -62 -8 -97 -38 -101 -85 -2
-26 -6 -32 -25 -32 -35 0 -72 29 -72 57 0 37 42 73 87 74 21 0 74 8 117 18 85
18 113 41 52 41 l-36 0 0 229 c0 175 4 246 16 302 9 41 20 79 24 84 4 6 18 46
30 89 35 127 62 183 247 514 18 31 40 85 49 119 l17 62 -29 68 c-25 58 -29 81
-29 159 0 97 9 123 69 211 41 60 66 66 167 37 46 -13 98 -32 115 -41 17 -9 39
-13 48 -10 20 8 21 37 2 37 -12 0 -173 49 -316 97 -25 8 -106 30 -180 49 -214
55 -239 64 -288 101 -49 36 -132 130 -132 148 0 27 -22 85 -31 80 -5 -4 -9
-24 -9 -46 l0 -40 -107 4 c-81 3 -131 11 -198 31 -49 15 -94 31 -100 36 -5 5
-39 19 -75 33 -108 41 -216 101 -316 178 -32 25 -88 67 -123 95 -93 70 -177
151 -200 190 -18 30 -6 23 97 -54 64 -48 120 -90 123 -95 3 -4 35 -18 70 -31
89 -33 166 -63 219 -86 25 -10 81 -26 124 -35 71 -14 86 -21 150 -73 39 -31
74 -61 77 -66 8 -10 29 0 29 14 0 8 -20 32 -98 121 -64 73 -129 210 -151 316
-11 54 -24 116 -30 138 -12 47 -14 162 -4 413 6 172 12 206 28 145z m2630
-958 c99 -14 218 -33 265 -43 l85 -17 -3 -49 c-4 -78 -35 -129 -121 -194 -68
-52 -116 -82 -341 -212 -272 -158 -395 -241 -431 -291 -19 -28 -21 -40 -16
-116 4 -77 8 -88 31 -107 l27 -21 -12 -130 c-12 -136 -7 -119 -114 -385 -23
-58 -55 -149 -126 -365 -21 -64 -23 -88 -24 -280 0 -115 4 -265 8 -332 7 -100
6 -124 -5 -127 -7 -2 -32 -9 -55 -15 -34 -9 -45 -18 -60 -51 -17 -39 -19 -40
-58 -35 -108 15 -131 25 -148 60 -11 23 -25 36 -44 40 -64 14 -74 22 -62 52
34 86 101 351 109 433 6 52 14 128 18 169 6 47 4 109 -4 170 -6 53 -17 135
-22 183 -7 50 -20 104 -33 129 -19 37 -20 50 -12 100 6 34 6 81 0 116 -4 32
-16 114 -26 183 l-17 125 37 66 c21 36 42 91 48 122 9 49 8 63 -9 103 -11 25
-24 43 -28 40 -5 -3 -42 11 -83 30 -41 20 -90 42 -109 49 -19 8 -73 30 -120
50 -47 20 -109 45 -138 57 -66 25 -177 98 -214 141 -19 21 -28 43 -28 64 0 40
-2 39 165 83 66 17 147 40 180 51 207 65 636 146 865 162 312 22 424 21 625
-8z m-135 -662 c25 -11 50 -22 57 -24 6 -2 34 -32 61 -66 48 -61 50 -65 57
-148 6 -78 4 -92 -26 -187 -18 -57 -42 -122 -55 -145 -18 -35 -21 -53 -17
-105 2 -35 10 -81 18 -103 8 -22 24 -78 36 -125 12 -47 26 -93 31 -104 10 -18
31 -111 83 -360 43 -204 33 -276 -56 -437 -33 -61 -66 -127 -73 -147 -10 -29
-19 -38 -39 -40 -41 -5 -35 -36 11 -55 79 -34 120 -62 125 -84 6 -32 -30 -31
-44 1 -16 35 -50 46 -144 46 -69 0 -85 -3 -85 -15 0 -12 15 -15 78 -15 47 0
85 -5 95 -13 22 -16 28 -63 7 -58 -57 14 -112 13 -130 -4 -19 -17 -21 -17 -33
-2 -15 20 -127 87 -145 87 -29 0 -4 -30 58 -72 51 -34 66 -49 68 -71 l3 -29
-44 26 c-37 22 -51 25 -82 18 -50 -10 -62 -30 -49 -80 l10 -38 -75 54 c-104
75 -145 91 -204 82 -34 -5 -57 -16 -80 -38 -46 -45 -68 -43 -59 5 13 76 10 86
-27 96 -19 5 -45 7 -56 4 -20 -3 -21 -1 -15 36 4 21 13 44 19 50 6 6 46 16 89
22 59 8 78 15 80 28 2 11 -3 17 -16 17 -18 0 -21 9 -27 68 -3 37 -9 88 -14
113 -9 57 5 432 20 519 13 73 80 284 109 346 11 22 20 43 20 47 0 11 67 156
110 238 22 42 40 82 40 88 0 17 -27 13 -34 -5 -14 -36 -14 -4 0 116 16 149 17
200 4 200 -5 0 -13 -14 -17 -31 -12 -45 -27 -40 -41 16 -20 83 -14 95 116 192
64 49 126 94 137 101 26 16 89 10 145 -15z m177 -599 c5 -51 12 -68 58 -129
34 -46 83 -94 141 -138 49 -37 105 -90 124 -116 19 -27 48 -65 63 -84 15 -19
30 -50 33 -69 7 -40 0 -45 -125 -78 -44 -12 -84 -27 -87 -32 -14 -22 14 -27
66 -12 183 51 206 56 260 50 68 -7 126 -29 163 -64 36 -34 34 -42 -10 -42 -60
0 -139 -64 -114 -93 24 -29 -19 -86 -50 -66 -26 16 -63 9 -108 -21 -111 -76
-156 -177 -113 -258 14 -27 17 -43 10 -50 -5 -5 -12 -37 -15 -71 -5 -52 -3
-61 11 -61 12 0 16 9 16 38 0 54 10 81 31 87 26 9 24 22 -11 57 -31 30 -37 63
-20 103 7 16 9 11 9 -22 1 -58 9 -73 40 -73 31 0 64 21 104 64 21 23 27 39 27
76 0 60 -18 85 -56 77 -27 -5 -27 -4 -9 9 10 8 34 14 52 14 38 0 48 -16 58
-92 10 -74 25 -57 25 27 0 74 0 75 26 75 23 0 25 3 20 25 -6 25 -6 25 56 25
44 0 75 6 101 20 47 26 47 26 47 -10 0 -20 5 -30 15 -30 9 0 15 9 15 24 0 34
9 37 52 18 29 -13 38 -23 40 -46 4 -43 26 -44 34 -2 7 38 34 51 34 16 0 -70
66 -133 133 -128 30 3 37 0 37 -14 0 -10 -9 -23 -20 -30 -42 -26 -12 -118 38
-118 15 0 17 -10 12 -102 -5 -111 -9 -123 -40 -131 -19 -5 -20 -2 -14 29 5 25
3 34 -7 34 -9 0 -24 -31 -38 -78 -47 -149 -124 -249 -238 -307 -67 -33 -206
-51 -273 -35 -65 16 -190 83 -262 142 -71 58 -174 108 -222 108 -21 0 -63 13
-96 30 -68 34 -74 51 -40 110 11 19 29 53 40 75 11 22 24 47 29 55 70 109 95
257 66 385 -8 39 -28 129 -44 200 -16 72 -42 177 -59 235 -70 242 -81 282 -83
322 -1 24 3 55 10 71 6 15 16 39 21 54 15 38 30 17 37 -53z m-1898 -526 c-6
-18 -15 -42 -20 -53 -5 -11 -21 -63 -35 -115 -54 -196 -43 -175 -94 -172 -56
4 -90 33 -90 76 0 21 -14 49 -40 84 -22 29 -40 56 -40 60 1 16 51 63 100 93
64 39 121 57 182 58 l47 1 -10 -32z m-492 -186 c-50 -56 20 -162 106 -162 46
0 79 20 100 60 l18 35 -7 -47 c-8 -58 1 -76 27 -52 18 16 19 16 19 -3 0 -11
-7 -37 -15 -56 -19 -46 -19 -47 3 -47 9 0 28 18 42 40 22 35 29 40 62 40 21 0
38 -4 38 -10 0 -5 -15 -10 -34 -10 -40 0 -76 -37 -76 -77 0 -46 47 -118 88
-134 20 -8 22 -15 22 -92 l0 -84 -37 -7 c-73 -12 -80 -9 -88 32 -4 20 -15 56
-26 79 -10 23 -19 45 -19 49 0 18 -95 120 -136 146 -39 24 -57 29 -117 30 -91
1 -145 -20 -193 -76 l-36 -41 5 -102 c4 -93 7 -105 36 -145 79 -111 140 -156
224 -165 55 -6 55 -6 44 -30 -10 -23 -15 -25 -72 -21 -51 4 -69 11 -119 46
-93 66 -158 151 -190 250 -16 51 -28 69 -51 82 l-30 17 3 93 c2 56 8 103 17
121 8 15 15 39 15 54 0 20 5 25 25 25 35 0 86 23 108 48 10 11 21 39 24 61 7
50 23 54 23 7 0 -44 18 -92 30 -80 5 5 10 27 12 49 3 38 5 40 41 43 l37 3 0
-40 c0 -23 2 -41 4 -41 2 0 11 -3 20 -6 13 -5 16 1 16 30 0 44 24 106 41 106
8 0 6 -6 -4 -18z"/>
<path d="M4785 4859 c-121 -36 -275 -321 -275 -509 0 -43 33 -79 94 -104 58
-24 237 -22 293 3 64 30 126 81 164 135 34 50 34 50 33 160 -1 101 -4 115 -28
158 -61 106 -198 182 -281 157z m9 -125 c45 -44 -1 -134 -67 -134 -45 0 -61
20 -52 66 12 68 81 107 119 68z"/>
<path d="M3032 4629 c-82 -41 -148 -109 -168 -173 -26 -81 -30 -205 -9 -247
24 -48 80 -105 145 -147 54 -35 57 -35 161 -36 103 0 107 0 164 34 84 50 165
129 165 162 0 42 -54 172 -91 220 -95 121 -132 158 -191 187 -76 39 -100 39
-176 0z m209 -86 c31 -19 43 -45 37 -84 -2 -19 -10 -25 -37 -27 -57 -6 -81 6
-97 45 -31 72 24 109 97 66z"/>
<path d="M5572 1551 c-108 -28 -232 -183 -245 -308 -9 -83 5 -124 63 -183 l49
-50 97 0 97 0 77 80 c88 91 119 158 127 274 5 79 -8 112 -65 161 -30 25 -44
30 -101 32 -36 1 -81 -2 -99 -6z"/>
</g>
</svg>
